<?xml version="1.0" encoding="UTF-8" standalone="no"?>
<!DOCTYPE svg PUBLIC "-//W3C//DTD SVG 1.1//EN" "http://www.w3.org/Graphics/SVG/1.1/DTD/svg11.dtd">
<svg width="100%" height="100%" viewBox="0 0 942 611" version="1.1" xmlns="http://www.w3.org/2000/svg" xmlns:xlink="http://www.w3.org/1999/xlink" xml:space="preserve" xmlns:serif="http://www.serif.com/" style="fill-rule:evenodd;clip-rule:evenodd;stroke-linejoin:round;stroke-miterlimit:2;">
    <g transform="matrix(1,0,0,1,-272.248,-125.983)">
        <g>
            <g transform="matrix(1.01588,0,0,0.960419,539.822,32.4098)">
                <path d="M393.512,374.024C393.512,368.678 389.172,364.338 383.826,364.338L254.034,378.902C248.688,378.902 244.347,383.242 244.347,388.588L274.937,722.877C274.937,728.222 279.278,732.563 284.623,732.563L427.063,730.263C432.409,730.263 436.749,725.923 436.749,720.577L393.512,374.024Z" style="fill:#f8c766;"/>
            </g>
            <g transform="matrix(1.01588,0,0,0.927417,0.939048,52.8387)">
                <path d="M581.313,412.559C581.313,407.213 576.973,402.873 571.627,402.873L276.754,455.838C271.408,455.838 267.068,460.178 267.068,465.524L274.937,722.877C274.937,728.222 279.278,732.563 284.623,732.563L556.625,732.967C561.971,732.967 566.311,728.627 566.311,723.281L581.313,412.559Z" style="fill:#f8c766;"/>
            </g>
            <g transform="matrix(1.01588,0,0,0.960419,367.665,-249.433)">
                <path d="M635.562,401.384C635.562,396.038 631.222,391.698 625.876,391.698L277.084,402.053C271.738,402.053 267.398,406.393 267.398,411.739L257.207,655.144C257.207,660.49 261.547,664.83 266.893,664.83L620.023,613.432C625.369,613.432 629.709,609.092 629.709,603.746L635.562,401.384Z" style="fill:#f8c766;"/>
            </g>
            <g transform="matrix(1.01588,0,0,0.960419,570.015,-246.815)">
                <path d="M634.091,399.336C634.091,393.99 631.637,388.161 626.291,388.161L479.547,390.017C474.201,390.017 471.42,393.809 471.42,399.155L466.291,596.902C466.291,602.248 467.528,605.794 473.45,609.145L620.389,692.412C625.649,695.094 630.075,688.072 630.075,682.726L634.091,399.336Z" style="fill:#f8c766;"/>
            </g>
            <path d="M1036.11,364.57C1036.11,364.57 1202.12,456.599 1206.17,459.114C1209.56,461.217 1209.79,464.506 1209.79,464.506L1210.18,719.569C1210.18,719.569 1210.69,726.571 1203.63,726.793C1196.56,727.015 1028.6,733.167 1022.72,732.249C1016.85,731.33 1016.08,727.346 1016.08,727.346L971.948,383.487C971.948,383.487 970.399,375.578 979.364,373.942C994.644,371.154 1024.96,364.316 1028.46,363.553C1033.14,362.53 1036.11,364.57 1036.11,364.57Z" style="fill:#f8c766;"/>
            <g transform="matrix(1.01588,0,0,0.960419,332.047,31.1245)">
                <path d="M415.615,397.298C415.615,391.952 411.275,387.611 405.929,387.611L299.113,403.165C293.767,403.165 289.427,407.506 289.427,412.852L274.937,722.877C274.937,728.222 279.278,732.563 284.623,732.563L434.498,734.766C439.843,734.766 444.184,730.426 444.184,725.08L415.615,397.298Z" style="fill:#f8c766;"/>
            </g>
        </g>
    </g>
</svg>
