<?xml version="1.0" encoding="UTF-8" standalone="no"?>
<!DOCTYPE svg PUBLIC "-//W3C//DTD SVG 1.1//EN" "http://www.w3.org/Graphics/SVG/1.1/DTD/svg11.dtd">
<svg width="100%" height="100%" viewBox="0 0 89 50" version="1.1" xmlns="http://www.w3.org/2000/svg" xmlns:xlink="http://www.w3.org/1999/xlink" xml:space="preserve" xmlns:serif="http://www.serif.com/" style="fill-rule:evenodd;clip-rule:evenodd;stroke-linejoin:round;stroke-miterlimit:2;">
    <g transform="matrix(1,0,0,1,-375.055,-429.354)">
        <g transform="matrix(1,0,0,1,101.075,57.4122)">
            <path d="M362.269,376.713C362.679,374.842 360.962,371.97 359.046,371.955C345.341,371.847 302.518,372.438 289.324,372.884C287.198,372.956 284.909,374.767 284.284,376.8C282.294,383.268 275.233,409.75 274.069,416.078C273.522,419.053 275.547,421.535 278.449,421.292C288.261,420.469 332.134,415.484 345.838,412.884C349.041,412.277 352.596,410.133 353.697,407.065C356.467,399.345 360.618,384.233 362.269,376.713Z" style="fill:#d52929;"/>
        </g>
    </g>
</svg>
