<?xml version="1.0" encoding="UTF-8" standalone="no"?>
<!DOCTYPE svg PUBLIC "-//W3C//DTD SVG 1.1//EN" "http://www.w3.org/Graphics/SVG/1.1/DTD/svg11.dtd">
<svg width="100%" height="100%" viewBox="0 0 72 33" version="1.1" xmlns="http://www.w3.org/2000/svg" xmlns:xlink="http://www.w3.org/1999/xlink" xml:space="preserve" xmlns:serif="http://www.serif.com/" style="fill-rule:evenodd;clip-rule:evenodd;stroke-linejoin:round;stroke-miterlimit:2;">
    <g transform="matrix(1,0,0,1,-173.24,-429.354)">
        <g transform="matrix(0.772669,0,0,0.846531,-53.0406,2.9077)">
            <path d="M385.362,510.172C385.928,507.177 385.8,504.33 380.494,504.005C369.846,503.351 322.73,504.171 315.566,504.435C312.823,504.536 310.037,504.653 307.255,509.41C303.841,515.248 296.291,528.623 293.279,535.723C291.582,539.721 295.243,542.069 299.678,542.051C311.08,542.004 358.955,542.171 370.65,542.051C372.866,542.028 376.078,540.444 376.94,538.376C378.997,533.439 383.945,517.684 385.362,510.172Z" style="fill:#f8c766;"/>
        </g>
    </g>
</svg>
