<?xml version="1.0" encoding="UTF-8" standalone="no"?>
<!DOCTYPE svg PUBLIC "-//W3C//DTD SVG 1.1//EN" "http://www.w3.org/Graphics/SVG/1.1/DTD/svg11.dtd">
<svg width="100%" height="100%" viewBox="0 0 97 50" version="1.1" xmlns="http://www.w3.org/2000/svg" xmlns:xlink="http://www.w3.org/1999/xlink" xml:space="preserve" xmlns:serif="http://www.serif.com/" style="fill-rule:evenodd;clip-rule:evenodd;stroke-linejoin:round;stroke-miterlimit:2;">
    <g transform="matrix(1,0,0,1,-274.026,-429.49)">
        <g transform="matrix(0.978638,0,0,0.960944,3.69713,72.0654)">
            <path d="M374.886,377.595C375.207,375.707 374.422,372.163 370.701,372.075C356.71,371.745 303.727,372.097 289.324,372.884C287.2,373 285.002,374.798 284.284,376.8C282.055,383.01 277.056,401.464 276.287,407.265C275.851,410.55 277.953,412.228 280.534,412.693C294.049,415.126 343.07,422.544 357.305,423.157C360.561,423.297 364.089,421.697 365.1,418.597C367.601,410.921 373.48,385.878 374.886,377.595Z" style="fill:#d52929;"/>
        </g>
    </g>
</svg>
