<?xml version="1.0" encoding="UTF-8" standalone="no"?>
<!DOCTYPE svg PUBLIC "-//W3C//DTD SVG 1.1//EN" "http://www.w3.org/Graphics/SVG/1.1/DTD/svg11.dtd">
<svg width="100%" height="100%" viewBox="0 0 26 58" version="1.1" xmlns="http://www.w3.org/2000/svg" xmlns:xlink="http://www.w3.org/1999/xlink" xml:space="preserve" xmlns:serif="http://www.serif.com/" style="fill-rule:evenodd;clip-rule:evenodd;stroke-linejoin:round;stroke-miterlimit:2;">
    <g transform="matrix(1,0,0,1,-328.607,-493.096)">
        <g transform="matrix(2.36562e-16,0.772669,-0.846531,2.59175e-16,783.519,258.596)">
            <path d="M373.51,510.167C372.577,508.148 369.82,507.113 367.596,507.079C356.926,506.915 319.988,508.032 309.486,509.185C307.21,509.435 305.155,511.782 304.587,514C303.658,517.627 303.039,527.069 303.912,530.949C304.546,533.765 306.941,537.129 309.824,537.277C321.449,537.874 362.309,535.833 373.659,534.527C375.858,534.274 377.94,531.654 377.926,529.442C377.901,525.382 375.232,513.894 373.51,510.167Z" style="fill:#d52929;"/>
        </g>
    </g>
</svg>
